<svg width="200" height="22" viewBox="0 0 200 22" fill="none" xmlns="http://www.w3.org/2000/svg">

  <!-- Ícone livro -->
  <g transform="translate(0, 1)">
    <path d="M1 0.5 C1 0.5 9 0 11 2.5 L11 19.5 C9 17.5 1 18 1 18 Z" fill="#4f7cff" opacity="0.9"/>
    <path d="M21 0.5 C21 0.5 13 0 11 2.5 L11 19.5 C13 17.5 21 18 21 18 Z" fill="#7c4fff" opacity="0.9"/>
    <line x1="11" y1="2.5" x2="11" y2="19.5" stroke="#fff" stroke-width="0.7" opacity="0.3"/>
    <line x1="3"  y1="6"   x2="9"  y2="5.5"  stroke="#fff" stroke-width="0.8" opacity="0.5" stroke-linecap="round"/>
    <line x1="3"  y1="9.5" x2="9"  y2="9"    stroke="#fff" stroke-width="0.8" opacity="0.5" stroke-linecap="round"/>
    <line x1="3"  y1="13"  x2="9"  y2="12.5" stroke="#fff" stroke-width="0.8" opacity="0.5" stroke-linecap="round"/>
    <line x1="13" y1="5.5" x2="19" y2="6"    stroke="#fff" stroke-width="0.8" opacity="0.5" stroke-linecap="round"/>
    <line x1="13" y1="9"   x2="19" y2="9.5"  stroke="#fff" stroke-width="0.8" opacity="0.5" stroke-linecap="round"/>
    <line x1="13" y1="12.5" x2="19" y2="13"  stroke="#fff" stroke-width="0.8" opacity="0.5" stroke-linecap="round"/>
  </g>

  <!-- Generic -->
  <text x="27" y="16" font-family="'Segoe UI', system-ui, sans-serif" font-size="13" font-weight="700" fill="#F8F9FA" letter-spacing="-0.3">Generic</text>
  <!-- Course -->
  <text x="101" y="16" font-family="'Segoe UI', system-ui, sans-serif" font-size="13" font-weight="300" fill="#4C6EF5" letter-spacing="0.5">Course</text>

</svg>
